<svg xmlns="http://www.w3.org/2000/svg" viewBox="0 0 1500 980" width="1500" height="980" font-family="'Segoe UI', system-ui, -apple-system, sans-serif">

  <!-- Background -->
  <rect width="1500" height="980" fill="#f8f9fa" rx="0"/>

  <!-- ===== TITLE ===== -->
  <rect x="0" y="0" width="1500" height="64" fill="#1a1a2e"/>
  <text x="750" y="22" text-anchor="middle" fill="#ffffff" font-size="11" font-weight="400" letter-spacing="3">BYTEBYTEGO STYLE ARCHITECTURE</text>
  <text x="750" y="48" text-anchor="middle" fill="#ffffff" font-size="22" font-weight="700" letter-spacing="1">GitLab CI/CD Pipeline — End-to-End Ecosystem</text>

  <!-- ===== ZONE LABELS ===== -->
  <!-- Developer Zone -->
  <rect x="18" y="80" width="180" height="860" fill="#eef2ff" rx="12" stroke="#c7d2fe" stroke-width="1.5"/>
  <text x="108" y="104" text-anchor="middle" fill="#4338ca" font-size="11" font-weight="700" letter-spacing="2">DEVELOPER</text>

  <!-- GitLab SaaS Zone -->
  <rect x="212" y="80" width="420" height="860" fill="#fff7ed" rx="12" stroke="#fed7aa" stroke-width="1.5"/>
  <text x="422" y="104" text-anchor="middle" fill="#c2410c" font-size="11" font-weight="700" letter-spacing="2">GITLAB SAAS  (gitlab.com)</text>

  <!-- Runner Zone -->
  <rect x="646" y="80" width="300" height="860" fill="#f0fdf4" rx="12" stroke="#bbf7d0" stroke-width="1.5"/>
  <text x="796" y="104" text-anchor="middle" fill="#15803d" font-size="11" font-weight="700" letter-spacing="2">GITLAB RUNNERS</text>

  <!-- Deploy Zone -->
  <rect x="960" y="80" width="522" height="860" fill="#fdf4ff" rx="12" stroke="#e9d5ff" stroke-width="1.5"/>
  <text x="1221" y="104" text-anchor="middle" fill="#7e22ce" font-size="11" font-weight="700" letter-spacing="2">DEPLOY &amp; OBSERVE</text>

  <!-- ===== STEP NUMBERS LEGEND ===== -->
  <!-- Floating legend bottom strip -->
  <rect x="18" y="926" width="1464" height="36" fill="#1a1a2e" rx="8"/>
  <text x="30" y="949" fill="#94a3b8" font-size="10" font-weight="500">FLOW:</text>
  <circle cx="92" cy="944" r="9" fill="#6366f1"/><text x="92" y="948" text-anchor="middle" fill="white" font-size="9" font-weight="700">1</text>
  <text x="105" y="949" fill="#cbd5e1" font-size="10">Git Push / MR</text>
  <circle cx="196" cy="944" r="9" fill="#f97316"/><text x="196" y="948" text-anchor="middle" fill="white" font-size="9" font-weight="700">2</text>
  <text x="209" y="949" fill="#cbd5e1" font-size="10">Pipeline Triggered</text>
  <circle cx="322" cy="944" r="9" fill="#f97316"/><text x="322" y="948" text-anchor="middle" fill="white" font-size="9" font-weight="700">3</text>
  <text x="335" y="949" fill="#cbd5e1" font-size="10">Job Queued → Runner Picks Up</text>
  <circle cx="500" cy="944" r="9" fill="#22c55e"/><text x="500" y="948" text-anchor="middle" fill="white" font-size="9" font-weight="700">4</text>
  <text x="513" y="949" fill="#cbd5e1" font-size="10">Build → Test → Scan → Package</text>
  <circle cx="660" cy="944" r="9" fill="#a855f7"/><text x="660" y="948" text-anchor="middle" fill="white" font-size="9" font-weight="700">5</text>
  <text x="673" y="949" fill="#cbd5e1" font-size="10">Image pushed to Registry</text>
  <circle cx="790" cy="944" r="9" fill="#a855f7"/><text x="790" y="948" text-anchor="middle" fill="white" font-size="9" font-weight="700">6</text>
  <text x="803" y="949" fill="#cbd5e1" font-size="10">Deploy to K8s (Agent)</text>
  <circle cx="912" cy="944" r="9" fill="#a855f7"/><text x="912" y="948" text-anchor="middle" fill="white" font-size="9" font-weight="700">7</text>
  <text x="925" y="949" fill="#cbd5e1" font-size="10">Monitor &amp; Alert</text>

  <!-- ===== DEVELOPER COLUMN ===== -->

  <!-- Developer -->
  <rect x="34" y="118" width="148" height="80" fill="#4338ca" rx="10"/>
  <text x="108" y="151" text-anchor="middle" fill="white" font-size="26">👨‍💻</text>
  <text x="108" y="171" text-anchor="middle" fill="white" font-size="12" font-weight="600">Developer</text>
  <text x="108" y="186" text-anchor="middle" fill="#c7d2fe" font-size="9">Local IDE + Git</text>

  <!-- Arrow down to push -->
  <line x1="108" y1="198" x2="108" y2="238" stroke="#4338ca" stroke-width="2" stroke-dasharray="4,3"/>
  <polygon points="108,242 103,232 113,232" fill="#4338ca"/>

  <!-- Push event box -->
  <rect x="34" y="242" width="148" height="60" fill="white" rx="8" stroke="#4338ca" stroke-width="1.5"/>
  <text x="108" y="264" text-anchor="middle" fill="#1e1b4b" font-size="11" font-weight="700">git push</text>
  <text x="108" y="278" text-anchor="middle" fill="#6366f1" font-size="9">feature/fix branch</text>
  <text x="108" y="291" text-anchor="middle" fill="#6366f1" font-size="9">Merge Request open</text>

  <!-- Step 1 badge -->
  <circle cx="170" cy="258" r="10" fill="#6366f1"/><text x="170" y="262" text-anchor="middle" fill="white" font-size="9" font-weight="700">1</text>

  <!-- Webhook arrow -->
  <line x1="182" y1="272" x2="210" y2="272" stroke="#4338ca" stroke-width="2"/>
  <polygon points="214,272 206,267 206,277" fill="#4338ca"/>
  <text x="196" y="266" text-anchor="middle" fill="#4338ca" font-size="8">webhook</text>

  <!-- CI/CD Variables box -->
  <rect x="34" y="330" width="148" height="56" fill="white" rx="8" stroke="#818cf8" stroke-width="1.5"/>
  <text x="108" y="352" text-anchor="middle" fill="#1e1b4b" font-size="11" font-weight="700">CI/CD Variables</text>
  <text x="108" y="365" text-anchor="middle" fill="#6366f1" font-size="8">Masked • Protected</text>
  <text x="108" y="378" text-anchor="middle" fill="#6366f1" font-size="8">File • Env • Group</text>

  <!-- Secrets arrow right -->
  <line x1="182" y1="358" x2="210" y2="358" stroke="#818cf8" stroke-width="1.5" stroke-dasharray="3,3"/>
  <polygon points="214,358 206,353 206,363" fill="#818cf8"/>
  <text x="196" y="352" text-anchor="middle" fill="#818cf8" font-size="7">injected</text>

  <!-- MR Review box -->
  <rect x="34" y="416" width="148" height="56" fill="white" rx="8" stroke="#818cf8" stroke-width="1.5"/>
  <text x="108" y="438" text-anchor="middle" fill="#1e1b4b" font-size="11" font-weight="700">Merge Request</text>
  <text x="108" y="451" text-anchor="middle" fill="#6366f1" font-size="8">Code Review</text>
  <text x="108" y="464" text-anchor="middle" fill="#6366f1" font-size="8">Approval Rules</text>

  <!-- Protected branch box -->
  <rect x="34" y="502" width="148" height="56" fill="white" rx="8" stroke="#818cf8" stroke-width="1.5"/>
  <text x="108" y="524" text-anchor="middle" fill="#1e1b4b" font-size="11" font-weight="700">Protected Branches</text>
  <text x="108" y="537" text-anchor="middle" fill="#6366f1" font-size="8">main • develop</text>
  <text x="108" y="550" text-anchor="middle" fill="#6366f1" font-size="8">Push/Merge rules</text>

  <!-- ===== GITLAB SAAS COLUMN ===== -->

  <!-- GitLab Logo box -->
  <rect x="228" y="118" width="388" height="56" fill="#e24329" rx="10"/>
  <text x="422" y="143" text-anchor="middle" fill="white" font-size="14" font-weight="700">🦊  GitLab.com</text>
  <text x="422" y="161" text-anchor="middle" fill="#fcd5c5" font-size="9">SaaS · Managed · Always Updated</text>

  <!-- Pipeline Engine -->
  <rect x="228" y="192" width="388" height="72" fill="white" rx="10" stroke="#fed7aa" stroke-width="2"/>
  <text x="316" y="215" fill="#c2410c" font-size="12" font-weight="700">⚙️  Pipeline Engine</text>
  <text x="246" y="233" fill="#374151" font-size="9">• Parses .gitlab-ci.yml   • Evaluates rules/workflow</text>
  <text x="246" y="247" fill="#374151" font-size="9">• Builds DAG (needs:)     • Queues jobs to runners</text>
  <text x="246" y="261" fill="#374151" font-size="9">• Manages artifacts/cache  • Tracks environments</text>
  <!-- Step 2 badge -->
  <circle cx="601" cy="208" r="10" fill="#f97316"/><text x="601" y="212" text-anchor="middle" fill="white" font-size="9" font-weight="700">2</text>

  <!-- .gitlab-ci.yml -->
  <rect x="228" y="282" width="184" height="90" fill="#fffbeb" rx="8" stroke="#fbbf24" stroke-width="1.5"/>
  <text x="320" y="302" text-anchor="middle" fill="#92400e" font-size="10" font-weight="700">.gitlab-ci.yml</text>
  <text x="246" y="320" fill="#374151" font-size="8">stages: [build, test,</text>
  <text x="246" y="333" fill="#374151" font-size="8">  scan, package, deploy]</text>
  <text x="246" y="346" fill="#374151" font-size="8">include: [templates]</text>
  <text x="246" y="359" fill="#374151" font-size="8">variables, rules, needs</text>

  <!-- Pipeline Stages visual -->
  <rect x="228" y="390" width="388" height="120" fill="white" rx="10" stroke="#fed7aa" stroke-width="2"/>
  <text x="316" y="412" fill="#c2410c" font-size="11" font-weight="700">Pipeline Stages (DAG)</text>

  <!-- Stage boxes inline -->
  <rect x="236" y="420" width="62" height="36" fill="#dbeafe" rx="6"/>
  <text x="267" y="437" text-anchor="middle" fill="#1d4ed8" font-size="9" font-weight="700">BUILD</text>
  <text x="267" y="449" text-anchor="middle" fill="#1d4ed8" font-size="8">compile</text>

  <line x1="298" y1="438" x2="308" y2="438" stroke="#94a3b8" stroke-width="1.5"/>
  <polygon points="310,438 305,434 305,442" fill="#94a3b8"/>

  <rect x="310" y="420" width="62" height="36" fill="#dcfce7" rx="6"/>
  <text x="341" y="437" text-anchor="middle" fill="#15803d" font-size="9" font-weight="700">TEST</text>
  <text x="341" y="449" text-anchor="middle" fill="#15803d" font-size="8">unit/int</text>

  <line x1="372" y1="438" x2="382" y2="438" stroke="#94a3b8" stroke-width="1.5"/>
  <polygon points="384,438 379,434 379,442" fill="#94a3b8"/>

  <rect x="384" y="420" width="62" height="36" fill="#fef3c7" rx="6"/>
  <text x="415" y="437" text-anchor="middle" fill="#b45309" font-size="9" font-weight="700">SCAN</text>
  <text x="415" y="449" text-anchor="middle" fill="#b45309" font-size="8">security</text>

  <line x1="446" y1="438" x2="456" y2="438" stroke="#94a3b8" stroke-width="1.5"/>
  <polygon points="458,438 453,434 453,442" fill="#94a3b8"/>

  <rect x="458" y="420" width="68" height="36" fill="#fae8ff" rx="6"/>
  <text x="492" y="437" text-anchor="middle" fill="#7e22ce" font-size="9" font-weight="700">PACKAGE</text>
  <text x="492" y="449" text-anchor="middle" fill="#7e22ce" font-size="8">docker build</text>

  <line x1="526" y1="438" x2="536" y2="438" stroke="#94a3b8" stroke-width="1.5"/>
  <polygon points="538,438 533,434 533,442" fill="#94a3b8"/>

  <rect x="538" y="420" width="68" height="36" fill="#ffe4e6" rx="6"/>
  <text x="572" y="437" text-anchor="middle" fill="#be123c" font-size="9" font-weight="700">DEPLOY</text>
  <text x="572" y="449" text-anchor="middle" fill="#be123c" font-size="8">k8s/helm</text>

  <!-- needs: DAG arrow (Build → Deploy shortcut) -->
  <path d="M267,456 C267,475 572,475 572,456" fill="none" stroke="#6366f1" stroke-width="1" stroke-dasharray="3,2"/>
  <text x="422" y="488" text-anchor="middle" fill="#6366f1" font-size="8">needs: [] — skip stage ordering (DAG)</text>
  <text x="422" y="500" text-anchor="middle" fill="#6366f1" font-size="8">parallel: matrix — fan-out jobs</text>

  <!-- Security Dashboard -->
  <rect x="228" y="530" width="184" height="90" fill="#fff1f2" rx="8" stroke="#fda4af" stroke-width="1.5"/>
  <text x="320" y="550" text-anchor="middle" fill="#be123c" font-size="10" font-weight="700">🔒 Security Dashboard</text>
  <text x="246" y="568" fill="#374151" font-size="8">• SAST findings</text>
  <text x="246" y="581" fill="#374151" font-size="8">• DAST findings</text>
  <text x="246" y="594" fill="#374151" font-size="8">• Container vulns</text>
  <text x="246" y="607" fill="#374151" font-size="8">• Dependency scan</text>

  <!-- Container Registry -->
  <rect x="432" y="530" width="184" height="90" fill="#f0fdf4" rx="8" stroke="#86efac" stroke-width="1.5"/>
  <text x="524" y="550" text-anchor="middle" fill="#15803d" font-size="10" font-weight="700">📦 Container Registry</text>
  <text x="450" y="568" fill="#374151" font-size="8">registry.gitlab.com/</text>
  <text x="450" y="581" fill="#374151" font-size="8">  {group}/{project}</text>
  <text x="450" y="594" fill="#374151" font-size="8">• Tagged images</text>
  <text x="450" y="607" fill="#374151" font-size="8">• Immutable digests</text>

  <!-- Step 5 badge -->
  <circle cx="609" cy="546" r="10" fill="#a855f7"/><text x="609" y="550" text-anchor="middle" fill="white" font-size="9" font-weight="700">5</text>

  <!-- Environments -->
  <rect x="228" y="638" width="184" height="80" fill="#f0f9ff" rx="8" stroke="#7dd3fc" stroke-width="1.5"/>
  <text x="320" y="658" text-anchor="middle" fill="#0369a1" font-size="10" font-weight="700">🌍 Environments</text>
  <text x="246" y="676" fill="#374151" font-size="8">review/* → ephemeral</text>
  <text x="246" y="689" fill="#374151" font-size="8">staging   → auto-deploy</text>
  <text x="246" y="702" fill="#374151" font-size="8">production → manual gate</text>

  <!-- GitLab Agent config -->
  <rect x="432" y="638" width="184" height="80" fill="#f5f3ff" rx="8" stroke="#c4b5fd" stroke-width="1.5"/>
  <text x="524" y="658" text-anchor="middle" fill="#6d28d9" font-size="10" font-weight="700">🤝 GitLab Agent (kas)</text>
  <text x="450" y="676" fill="#374151" font-size="8">.gitlab/agents/</text>
  <text x="450" y="689" fill="#374151" font-size="8">  prod-agent/config.yaml</text>
  <text x="450" y="702" fill="#374151" font-size="8">Pull-based GitOps</text>

  <!-- Templates / includes -->
  <rect x="228" y="736" width="388" height="64" fill="#fefce8" rx="8" stroke="#fde047" stroke-width="1.5"/>
  <text x="320" y="756" fill="#713f12" font-size="10" font-weight="700">📄 CI/CD Component Templates</text>
  <text x="246" y="773" fill="#374151" font-size="8">Auto DevOps   • SAST.gitlab-ci.yml   • DAST.gitlab-ci.yml</text>
  <text x="246" y="786" fill="#374151" font-size="8">Container-Scanning • Dependency-Scanning • Secret-Detection</text>

  <!-- Packages / Releases -->
  <rect x="228" y="818" width="388" height="56" fill="#fff7ed" rx="8" stroke="#fdba74" stroke-width="1.5"/>
  <text x="320" y="838" fill="#c2410c" font-size="10" font-weight="700">📤 Package Registry &amp; Releases</text>
  <text x="246" y="855" fill="#374151" font-size="8">PyPI • npm • Maven • Generic packages • release: tag</text>

  <!-- ===== RUNNERS COLUMN ===== -->

  <!-- Coordinator label -->
  <rect x="662" y="118" width="268" height="50" fill="#15803d" rx="10"/>
  <text x="796" y="138" text-anchor="middle" fill="white" font-size="12" font-weight="700">Runner Coordinator</text>
  <text x="796" y="155" text-anchor="middle" fill="#bbf7d0" font-size="9">Polls GitLab API · claims jobs · sends logs</text>

  <!-- Step 3 badge -->
  <circle cx="920" cy="130" r="10" fill="#22c55e"/><text x="920" y="134" text-anchor="middle" fill="white" font-size="9" font-weight="700">3</text>

  <!-- Shared runners -->
  <rect x="662" y="186" width="268" height="68" fill="white" rx="8" stroke="#86efac" stroke-width="1.5"/>
  <text x="796" y="207" text-anchor="middle" fill="#15803d" font-size="11" font-weight="700">Shared Runners (SaaS)</text>
  <text x="680" y="225" fill="#374151" font-size="8">• linux/x86_64 — Google Cloud VMs</text>
  <text x="680" y="238" fill="#374151" font-size="8">• macOS, Windows — available</text>
  <text x="680" y="251" fill="#374151" font-size="8">• Auto-scaled, ephemeral, isolated</text>

  <!-- Self-managed runners -->
  <rect x="662" y="270" width="268" height="68" fill="white" rx="8" stroke="#86efac" stroke-width="1.5"/>
  <text x="796" y="291" text-anchor="middle" fill="#15803d" font-size="11" font-weight="700">Self-Managed Runners</text>
  <text x="680" y="309" fill="#374151" font-size="8">• Your infra (EC2, GKE, bare metal)</text>
  <text x="680" y="322" fill="#374151" font-size="8">• Private network access</text>
  <text x="680" y="335" fill="#374151" font-size="8">• Custom tools / larger instances</text>

  <!-- Executor types -->
  <rect x="662" y="354" width="268" height="130" fill="#f0fdf4" rx="8" stroke="#86efac" stroke-width="1.5"/>
  <text x="796" y="375" text-anchor="middle" fill="#15803d" font-size="10" font-weight="700">Executor Types</text>

  <rect x="672" y="382" width="110" height="30" fill="#dcfce7" rx="5"/>
  <text x="727" y="401" text-anchor="middle" fill="#166534" font-size="9" font-weight="600">🐳 Docker</text>

  <rect x="810" y="382" width="110" height="30" fill="#dcfce7" rx="5"/>
  <text x="865" y="401" text-anchor="middle" fill="#166534" font-size="9" font-weight="600">☸️  Kubernetes</text>

  <rect x="672" y="420" width="110" height="30" fill="#dcfce7" rx="5"/>
  <text x="727" y="439" text-anchor="middle" fill="#166534" font-size="9" font-weight="600">🖥️  Shell</text>

  <rect x="810" y="420" width="110" height="30" fill="#dcfce7" rx="5"/>
  <text x="865" y="439" text-anchor="middle" fill="#166534" font-size="9" font-weight="600">🐳 Docker+Machine</text>

  <text x="680" y="467" fill="#374151" font-size="8">tags: [docker, linux, gpu, self-hosted]</text>

  <!-- config.toml -->
  <rect x="662" y="500" width="268" height="100" fill="#fffbeb" rx="8" stroke="#fcd34d" stroke-width="1.5"/>
  <text x="796" y="520" text-anchor="middle" fill="#92400e" font-size="10" font-weight="700">config.toml (Runner Config)</text>
  <text x="672" y="538" fill="#374151" font-size="8">[runners]</text>
  <text x="680" y="551" fill="#374151" font-size="8">concurrent = 10</text>
  <text x="680" y="564" fill="#374151" font-size="8">[[runners]]</text>
  <text x="688" y="577" fill="#374151" font-size="8">executor = "docker"</text>
  <text x="688" y="590" fill="#374151" font-size="8">privileged = false</text>

  <!-- Cache storage -->
  <rect x="662" y="616" width="268" height="68" fill="white" rx="8" stroke="#86efac" stroke-width="1.5"/>
  <text x="796" y="637" text-anchor="middle" fill="#15803d" font-size="11" font-weight="700">Cache Storage</text>
  <text x="680" y="655" fill="#374151" font-size="8">• S3 / GCS / Azure Blob</text>
  <text x="680" y="668" fill="#374151" font-size="8">• cache: key, paths, policy: pull-push</text>

  <!-- Artifacts -->
  <rect x="662" y="700" width="268" height="68" fill="white" rx="8" stroke="#86efac" stroke-width="1.5"/>
  <text x="796" y="721" text-anchor="middle" fill="#15803d" font-size="11" font-weight="700">Artifacts</text>
  <text x="680" y="739" fill="#374151" font-size="8">• Passed between jobs/stages</text>
  <text x="680" y="752" fill="#374151" font-size="8">• reports: junit, coverage, SAST</text>

  <!-- Step 4 badge -->
  <circle cx="920" cy="460" r="10" fill="#22c55e"/><text x="920" y="464" text-anchor="middle" fill="white" font-size="9" font-weight="700">4</text>

  <!-- Runner Security -->
  <rect x="662" y="784" width="268" height="90" fill="#fff1f2" rx="8" stroke="#fda4af" stroke-width="1.5"/>
  <text x="796" y="804" text-anchor="middle" fill="#be123c" font-size="10" font-weight="700">🔐 Runner Security</text>
  <text x="680" y="822" fill="#374151" font-size="8">• No privileged mode (unless DinD)</text>
  <text x="680" y="835" fill="#374151" font-size="8">• Token rotation (runner auth tokens)</text>
  <text x="680" y="848" fill="#374151" font-size="8">• Protected tags/branches runners</text>
  <text x="680" y="861" fill="#374151" font-size="8">• Job isolation (ephemeral containers)</text>

  <!-- ===== DEPLOY & OBSERVE COLUMN ===== -->

  <!-- Kubernetes Cluster header -->
  <rect x="976" y="118" width="490" height="50" fill="#7e22ce" rx="10"/>
  <text x="1221" y="138" text-anchor="middle" fill="white" font-size="12" font-weight="700">☸️  Kubernetes Clusters</text>
  <text x="1221" y="155" text-anchor="middle" fill="#e9d5ff" font-size="9">GitLab Agent (kas) — Pull-based GitOps</text>

  <!-- Step 6 badge -->
  <circle cx="1456" cy="130" r="10" fill="#a855f7"/><text x="1456" y="134" text-anchor="middle" fill="white" font-size="9" font-weight="700">6</text>

  <!-- Review / Preview apps -->
  <rect x="976" y="186" width="230" height="90" fill="white" rx="8" stroke="#d8b4fe" stroke-width="1.5"/>
  <text x="1091" y="208" text-anchor="middle" fill="#7e22ce" font-size="11" font-weight="700">🔎 Review Apps</text>
  <text x="994" y="226" fill="#374151" font-size="8">environment: review/$CI_COMMIT_REF_SLUG</text>
  <text x="994" y="239" fill="#374151" font-size="8">• Ephemeral namespace per MR</text>
  <text x="994" y="252" fill="#374151" font-size="8">• Auto-stop on MR merge/close</text>
  <text x="994" y="265" fill="#374151" font-size="8">• Dynamic URL in MR widget</text>

  <!-- Staging env -->
  <rect x="1236" y="186" width="230" height="90" fill="white" rx="8" stroke="#d8b4fe" stroke-width="1.5"/>
  <text x="1351" y="208" text-anchor="middle" fill="#7e22ce" font-size="11" font-weight="700">🧪 Staging</text>
  <text x="1254" y="226" fill="#374151" font-size="8">• Auto-deploy on main merge</text>
  <text x="1254" y="239" fill="#374151" font-size="8">• Helm chart upgrade</text>
  <text x="1254" y="252" fill="#374151" font-size="8">• Smoke tests post-deploy</text>
  <text x="1254" y="265" fill="#374151" font-size="8">• DAST scans staging URL</text>

  <!-- Production env -->
  <rect x="976" y="294" width="230" height="90" fill="white" rx="8" stroke="#d8b4fe" stroke-width="1.5"/>
  <text x="1091" y="316" text-anchor="middle" fill="#7e22ce" font-size="11" font-weight="700">🚀 Production</text>
  <text x="994" y="334" fill="#374151" font-size="8">• Manual approval gate</text>
  <text x="994" y="347" fill="#374151" font-size="8">• Protected environment</text>
  <text x="994" y="360" fill="#374151" font-size="8">• Rollback: helm rollback</text>
  <text x="994" y="373" fill="#374151" font-size="8">• Canary / blue-green support</text>

  <!-- GitLab Agent kas detail -->
  <rect x="1236" y="294" width="230" height="90" fill="white" rx="8" stroke="#d8b4fe" stroke-width="1.5"/>
  <text x="1351" y="314" text-anchor="middle" fill="#7e22ce" font-size="10" font-weight="700">🤝 Agent Architecture</text>
  <text x="1254" y="332" fill="#374151" font-size="8">agentk pod in cluster</text>
  <text x="1254" y="345" fill="#374151" font-size="8">  → polls kas (GitLab server)</text>
  <text x="1254" y="358" fill="#374151" font-size="8">  → applies manifests from repo</text>
  <text x="1254" y="371" fill="#374151" font-size="8">  → no inbound ports needed</text>

  <!-- Security Scanning detail -->
  <rect x="976" y="402" width="490" height="160" fill="#fff1f2" rx="10" stroke="#fda4af" stroke-width="2"/>
  <text x="1100" y="424" fill="#be123c" font-size="12" font-weight="700">🔒 Security Scanning Pipeline</text>

  <rect x="986" y="432" width="100" height="50" fill="#fee2e2" rx="6"/>
  <text x="1036" y="451" text-anchor="middle" fill="#991b1b" font-size="9" font-weight="700">SAST</text>
  <text x="1036" y="464" text-anchor="middle" fill="#991b1b" font-size="8">Semgrep</text>
  <text x="1036" y="476" text-anchor="middle" fill="#991b1b" font-size="8">static code</text>

  <rect x="1096" y="432" width="100" height="50" fill="#fee2e2" rx="6"/>
  <text x="1146" y="451" text-anchor="middle" fill="#991b1b" font-size="9" font-weight="700">DAST</text>
  <text x="1146" y="464" text-anchor="middle" fill="#991b1b" font-size="8">OWASP ZAP</text>
  <text x="1146" y="476" text-anchor="middle" fill="#991b1b" font-size="8">live app scan</text>

  <rect x="1206" y="432" width="100" height="50" fill="#fee2e2" rx="6"/>
  <text x="1256" y="451" text-anchor="middle" fill="#991b1b" font-size="9" font-weight="700">Container</text>
  <text x="1256" y="464" text-anchor="middle" fill="#991b1b" font-size="8">Trivy</text>
  <text x="1256" y="476" text-anchor="middle" fill="#991b1b" font-size="8">OS + app CVEs</text>

  <rect x="1316" y="432" width="100" height="50" fill="#fee2e2" rx="6"/>
  <text x="1366" y="451" text-anchor="middle" fill="#991b1b" font-size="9" font-weight="700">Dep. Scan</text>
  <text x="1366" y="464" text-anchor="middle" fill="#991b1b" font-size="8">Gemnasium</text>
  <text x="1366" y="476" text-anchor="middle" fill="#991b1b" font-size="8">SCA vulns</text>

  <rect x="1426" y="432" width="30" height="50" fill="#fee2e2" rx="4"/>
  <text x="1441" y="455" text-anchor="middle" fill="#991b1b" font-size="7" font-weight="700">Secret</text>
  <text x="1441" y="466" text-anchor="middle" fill="#991b1b" font-size="7">Detect</text>

  <text x="1091" y="502" fill="#374151" font-size="8">All scanners produce: gl-sast-report.json / gl-dast-report.json → parsed by GitLab</text>
  <text x="1091" y="516" fill="#374151" font-size="8">MR widget shows findings · Security Dashboard aggregates · Policies block merges</text>
  <text x="1091" y="530" fill="#374151" font-size="8">vulnerability: allows_failure: true (warn) vs false (block pipeline)</text>
  <text x="1091" y="544" fill="#374151" font-size="8">Scan Execution Policies · Merge Request Approval Policies (enforced by security team)</text>

  <!-- Monitoring -->
  <rect x="976" y="580" width="490" height="130" fill="#f0f9ff" rx="10" stroke="#7dd3fc" stroke-width="2"/>
  <text x="1100" y="602" fill="#0369a1" font-size="12" font-weight="700">📊 Observability Stack</text>

  <rect x="986" y="610" width="130" height="50" fill="#dbeafe" rx="6"/>
  <text x="1051" y="630" text-anchor="middle" fill="#1d4ed8" font-size="10" font-weight="700">Prometheus</text>
  <text x="1051" y="645" text-anchor="middle" fill="#1d4ed8" font-size="8">Metrics scraping</text>
  <text x="1051" y="656" text-anchor="middle" fill="#1d4ed8" font-size="8">AlertManager</text>

  <rect x="1126" y="610" width="130" height="50" fill="#dbeafe" rx="6"/>
  <text x="1191" y="630" text-anchor="middle" fill="#1d4ed8" font-size="10" font-weight="700">Grafana</text>
  <text x="1191" y="645" text-anchor="middle" fill="#1d4ed8" font-size="8">Dashboards</text>
  <text x="1191" y="656" text-anchor="middle" fill="#1d4ed8" font-size="8">Pipeline metrics</text>

  <rect x="1266" y="610" width="130" height="50" fill="#dbeafe" rx="6"/>
  <text x="1331" y="630" text-anchor="middle" fill="#1d4ed8" font-size="10" font-weight="700">GitLab Ops</text>
  <text x="1331" y="645" text-anchor="middle" fill="#1d4ed8" font-size="8">Deployment freq</text>
  <text x="1331" y="656" text-anchor="middle" fill="#1d4ed8" font-size="8">DORA metrics</text>

  <rect x="1406" y="610" width="54" height="50" fill="#dbeafe" rx="6"/>
  <text x="1433" y="630" text-anchor="middle" fill="#1d4ed8" font-size="9" font-weight="700">ELK /</text>
  <text x="1433" y="643" text-anchor="middle" fill="#1d4ed8" font-size="9">Loki</text>
  <text x="1433" y="656" text-anchor="middle" fill="#1d4ed8" font-size="8">Logs</text>

  <text x="986" y="685" fill="#374151" font-size="8">Step 7: Alert fires → PagerDuty/Slack → On-call investigates → kubectl rollout undo or GitLab pipeline rollback</text>

  <!-- Step 7 badge -->
  <circle cx="1456" cy="595" r="10" fill="#a855f7"/><text x="1456" y="599" text-anchor="middle" fill="white" font-size="9" font-weight="700">7</text>

  <!-- DORA Metrics -->
  <rect x="976" y="728" width="490" height="80" fill="white" rx="10" stroke="#7dd3fc" stroke-width="1.5"/>
  <text x="1100" y="750" fill="#0369a1" font-size="11" font-weight="700">📈 DORA Metrics (GitLab built-in)</text>
  <rect x="986" y="758" width="106" height="34" fill="#eff6ff" rx="5"/>
  <text x="1039" y="773" text-anchor="middle" fill="#1d4ed8" font-size="8" font-weight="700">Deployment</text>
  <text x="1039" y="784" text-anchor="middle" fill="#1d4ed8" font-size="7">Frequency</text>
  <rect x="1102" y="758" width="106" height="34" fill="#eff6ff" rx="5"/>
  <text x="1155" y="773" text-anchor="middle" fill="#1d4ed8" font-size="8" font-weight="700">Lead Time</text>
  <text x="1155" y="784" text-anchor="middle" fill="#1d4ed8" font-size="7">for Changes</text>
  <rect x="1218" y="758" width="106" height="34" fill="#eff6ff" rx="5"/>
  <text x="1271" y="773" text-anchor="middle" fill="#1d4ed8" font-size="8" font-weight="700">Change Failure</text>
  <text x="1271" y="784" text-anchor="middle" fill="#1d4ed8" font-size="7">Rate</text>
  <rect x="1334" y="758" width="122" height="34" fill="#eff6ff" rx="5"/>
  <text x="1395" y="773" text-anchor="middle" fill="#1d4ed8" font-size="8" font-weight="700">Time to Restore</text>
  <text x="1395" y="784" text-anchor="middle" fill="#1d4ed8" font-size="7">Service</text>

  <!-- GitFlow visual -->
  <rect x="976" y="826" width="490" height="72" fill="#fefce8" rx="10" stroke="#fde047" stroke-width="1.5"/>
  <text x="1000" y="846" fill="#713f12" font-size="10" font-weight="700">GitLab Flow  (Branching Strategy)</text>
  <text x="990" y="863" fill="#374151" font-size="8">feature/* → develop → staging → main (production)</text>
  <text x="990" y="876" fill="#374151" font-size="8">Protected: main, staging · MR required · ≥1 approval · Passing pipeline</text>
  <text x="990" y="889" fill="#374151" font-size="8">release/* → cherry-pick hotfixes · environment branches track deployment state</text>

  <!-- ===== CROSS-COLUMN FLOW ARROWS ===== -->

  <!-- Push → Pipeline trigger -->
  <line x1="616" y1="228" x2="644" y2="228" stroke="#f97316" stroke-width="2.5"/>
  <polygon points="648,228 640,223 640,233" fill="#f97316"/>

  <!-- Pipeline Engine → Runner queue -->
  <line x1="616" y1="250" x2="660" y2="250" stroke="#f97316" stroke-width="2.5"/>
  <polygon points="664,250 656,245 656,255" fill="#f97316"/>
  <text x="636" y="244" text-anchor="middle" fill="#f97316" font-size="8" font-weight="600">queue</text>

  <!-- Runner → build artifacts back to GitLab -->
  <path d="M662,580 C640,580 640,575 618,575" fill="none" stroke="#22c55e" stroke-width="1.5" stroke-dasharray="4,2"/>
  <polygon points="614,575 622,570 622,580" fill="#22c55e"/>
  <text x="638" y="570" text-anchor="middle" fill="#22c55e" font-size="7">reports</text>

  <!-- Registry → K8s Deploy -->
  <line x1="960" y1="575" x2="974" y2="350" stroke="#a855f7" stroke-width="2"/>
  <polygon points="974,346 969,356 979,356" fill="#a855f7"/>
  <text x="990" y="465" fill="#a855f7" font-size="8">docker pull</text>

  <!-- Agent → K8s -->
  <line x1="960" y1="678" x2="1234" y2="350" stroke="#a855f7" stroke-width="1.5" stroke-dasharray="5,2"/>
  <polygon points="1236,346 1228,354 1238,354" fill="#a855f7"/>
  <text x="1060" y="530" fill="#a855f7" font-size="7">pull sync</text>

  <!-- K8s → Prometheus -->
  <line x1="1200" y1="384" x2="1200" y2="578" stroke="#0369a1" stroke-width="1.5" stroke-dasharray="3,2"/>
  <polygon points="1200,582 1195,572 1205,572" fill="#0369a1"/>
  <text x="1210" y="490" fill="#0369a1" font-size="7" transform="rotate(-90,1210,490)">metrics</text>

</svg>
